<?xml version="1.0" encoding="UTF-8" standalone="no"?>
<!-- Created with Inkscape (http://www.inkscape.org/) -->

<svg
   xmlns:dc="http://purl.org/dc/elements/1.1/"
   xmlns:cc="http://creativecommons.org/ns#"
   xmlns:rdf="http://www.w3.org/1999/02/22-rdf-syntax-ns#"
   xmlns:svg="http://www.w3.org/2000/svg"
   xmlns="http://www.w3.org/2000/svg"
   xmlns:xlink="http://www.w3.org/1999/xlink"
   xmlns:sodipodi="http://sodipodi.sourceforge.net/DTD/sodipodi-0.dtd"
   xmlns:inkscape="http://www.inkscape.org/namespaces/inkscape"
   width="744.09448819"
   height="1052.3622047"
   id="svg2"
   version="1.1"
   inkscape:version="0.47pre4 "
   sodipodi:docname="limelight.svg">
  <defs
     id="defs4">
    <linearGradient
       id="linearGradient3667">
      <stop
         style="stop-color:#ffd543;stop-opacity:1;"
         offset="0"
         id="stop3669" />
      <stop
         style="stop-color:#ffeca9;stop-opacity:1;"
         offset="1"
         id="stop3671" />
    </linearGradient>
    <linearGradient
       id="linearGradient3659">
      <stop
         style="stop-color:#d59600;stop-opacity:1;"
         offset="0"
         id="stop3661" />
      <stop
         style="stop-color:#d59600;stop-opacity:0;"
         offset="1"
         id="stop3663" />
    </linearGradient>
    <linearGradient
       id="linearGradient3651">
      <stop
         style="stop-color:#73d216;stop-opacity:0.63963962;"
         offset="0"
         id="stop3653" />
      <stop
         style="stop-color:#73d216;stop-opacity:0;"
         offset="1"
         id="stop3655" />
    </linearGradient>
    <linearGradient
       id="linearGradient3633">
      <stop
         style="stop-color:#656565;stop-opacity:1;"
         offset="0"
         id="stop3635" />
      <stop
         style="stop-color:#d0ffbf;stop-opacity:1;"
         offset="1"
         id="stop3637" />
    </linearGradient>
    <linearGradient
       id="linearGradient3625">
      <stop
         style="stop-color:#ffffff;stop-opacity:0;"
         offset="0"
         id="stop3627" />
      <stop
         style="stop-color:#729fcf;stop-opacity:0.5945946;"
         offset="1"
         id="stop3629" />
    </linearGradient>
    <linearGradient
       id="linearGradient3617">
      <stop
         style="stop-color:#729fcf;stop-opacity:1;"
         offset="0"
         id="stop3619" />
      <stop
         style="stop-color:#3465a4;stop-opacity:1;"
         offset="1"
         id="stop3621" />
    </linearGradient>
    <linearGradient
       id="linearGradient3607">
      <stop
         style="stop-color:#008080;stop-opacity:1;"
         offset="0"
         id="stop3609" />
      <stop
         style="stop-color:#008080;stop-opacity:0;"
         offset="1"
         id="stop3611" />
    </linearGradient>
    <inkscape:perspective
       sodipodi:type="inkscape:persp3d"
       inkscape:vp_x="0 : 526.18109 : 1"
       inkscape:vp_y="0 : 1000 : 0"
       inkscape:vp_z="744.09448 : 526.18109 : 1"
       inkscape:persp3d-origin="372.04724 : 350.78739 : 1"
       id="perspective10" />
    <inkscape:perspective
       id="perspective2824"
       inkscape:persp3d-origin="0.5 : 0.33333333 : 1"
       inkscape:vp_z="1 : 0.5 : 1"
       inkscape:vp_y="0 : 1000 : 0"
       inkscape:vp_x="0 : 0.5 : 1"
       sodipodi:type="inkscape:persp3d" />
    <inkscape:perspective
       id="perspective3628"
       inkscape:persp3d-origin="0.5 : 0.33333333 : 1"
       inkscape:vp_z="1 : 0.5 : 1"
       inkscape:vp_y="0 : 1000 : 0"
       inkscape:vp_x="0 : 0.5 : 1"
       sodipodi:type="inkscape:persp3d" />
    <inkscape:perspective
       id="perspective2829"
       inkscape:persp3d-origin="0.5 : 0.33333333 : 1"
       inkscape:vp_z="1 : 0.5 : 1"
       inkscape:vp_y="0 : 1000 : 0"
       inkscape:vp_x="0 : 0.5 : 1"
       sodipodi:type="inkscape:persp3d" />
    <linearGradient
       inkscape:collect="always"
       xlink:href="#linearGradient3617"
       id="linearGradient3623"
       x1="339.88666"
       y1="314.23495"
       x2="388.12213"
       y2="389.36505"
       gradientUnits="userSpaceOnUse" />
    <radialGradient
       inkscape:collect="always"
       xlink:href="#linearGradient3625"
       id="radialGradient3631"
       cx="367.45155"
       cy="351.71161"
       fx="367.45155"
       fy="351.71161"
       r="35.504171"
       gradientTransform="matrix(1,0,0,1.2707762,0,-95.235134)"
       gradientUnits="userSpaceOnUse" />
    <linearGradient
       inkscape:collect="always"
       xlink:href="#linearGradient3667"
       id="linearGradient3673"
       x1="353.25116"
       y1="407.56142"
       x2="382.37387"
       y2="407.56142"
       gradientUnits="userSpaceOnUse" />
    <filter
       id="filter3762"
       inkscape:label="Fuzzy Glow"
       inkscape:menu="Shadows and Glows"
       inkscape:menu-tooltip="Overlays a semi-transparent shifted copy to a blurred one"
       color-interpolation-filters="sRGB">
      <feGaussianBlur
         id="feGaussianBlur3766"
         stdDeviation="2"
         result="result8" />
      <feComposite
         id="feComposite3768"
         in2="result8"
         result="result9"
         in="SourceGraphic"
         operator="xor" />
      <feBlend
         id="feBlend3770"
         in2="result8"
         in="result9"
         mode="darken" />
    </filter>
    <linearGradient
       inkscape:collect="always"
       xlink:href="#linearGradient3633"
       id="linearGradient3778"
       x1="366.93753"
       y1="377.94626"
       x2="366.93753"
       y2="366.15985"
       gradientUnits="userSpaceOnUse" />
    <linearGradient
       inkscape:collect="always"
       xlink:href="#linearGradient3667"
       id="linearGradient3805"
       gradientUnits="userSpaceOnUse"
       gradientTransform="translate(188,114)"
       x1="353.25116"
       y1="407.56142"
       x2="382.37387"
       y2="407.56142" />
    <radialGradient
       inkscape:collect="always"
       xlink:href="#linearGradient3625"
       id="radialGradient3807"
       gradientUnits="userSpaceOnUse"
       gradientTransform="matrix(1,0,0,1.2707762,188,18.764866)"
       cx="367.45155"
       cy="351.71161"
       fx="367.45155"
       fy="351.71161"
       r="35.504171" />
    <linearGradient
       inkscape:collect="always"
       xlink:href="#linearGradient3617"
       id="linearGradient3809"
       gradientUnits="userSpaceOnUse"
       gradientTransform="translate(188,114)"
       x1="339.88666"
       y1="314.23495"
       x2="388.12213"
       y2="389.36505" />
    <linearGradient
       inkscape:collect="always"
       xlink:href="#linearGradient3633"
       id="linearGradient3811"
       gradientUnits="userSpaceOnUse"
       gradientTransform="translate(188,114)"
       x1="366.93753"
       y1="387.19626"
       x2="366.93753"
       y2="366.15985" />
    <linearGradient
       inkscape:collect="always"
       xlink:href="#linearGradient3667"
       id="linearGradient3825"
       gradientUnits="userSpaceOnUse"
       gradientTransform="translate(188,114)"
       x1="353.25116"
       y1="407.56142"
       x2="382.37387"
       y2="407.56142" />
    <radialGradient
       inkscape:collect="always"
       xlink:href="#linearGradient3625"
       id="radialGradient3827"
       gradientUnits="userSpaceOnUse"
       gradientTransform="matrix(1,0,0,1.2707762,188,18.764866)"
       cx="367.45155"
       cy="351.71161"
       fx="367.45155"
       fy="351.71161"
       r="35.504171" />
    <linearGradient
       inkscape:collect="always"
       xlink:href="#linearGradient3617"
       id="linearGradient3829"
       gradientUnits="userSpaceOnUse"
       gradientTransform="translate(188,114)"
       x1="339.88666"
       y1="314.23495"
       x2="388.12213"
       y2="389.36505" />
    <linearGradient
       inkscape:collect="always"
       xlink:href="#linearGradient3633"
       id="linearGradient3831"
       gradientUnits="userSpaceOnUse"
       gradientTransform="translate(188,114)"
       x1="366.93753"
       y1="387.19626"
       x2="366.93753"
       y2="366.15985" />
    <linearGradient
       inkscape:collect="always"
       xlink:href="#linearGradient3667"
       id="linearGradient3853"
       gradientUnits="userSpaceOnUse"
       gradientTransform="translate(188,114)"
       x1="353.25116"
       y1="407.56142"
       x2="382.37387"
       y2="407.56142" />
    <radialGradient
       inkscape:collect="always"
       xlink:href="#linearGradient3625"
       id="radialGradient3855"
       gradientUnits="userSpaceOnUse"
       gradientTransform="matrix(1,0,0,1.2707762,188,18.764866)"
       cx="367.45155"
       cy="351.71161"
       fx="367.45155"
       fy="351.71161"
       r="35.504171" />
    <linearGradient
       inkscape:collect="always"
       xlink:href="#linearGradient3617"
       id="linearGradient3857"
       gradientUnits="userSpaceOnUse"
       gradientTransform="translate(188,114)"
       x1="339.88666"
       y1="314.23495"
       x2="388.12213"
       y2="389.36505" />
    <linearGradient
       inkscape:collect="always"
       xlink:href="#linearGradient3633"
       id="linearGradient3859"
       gradientUnits="userSpaceOnUse"
       gradientTransform="translate(188,114)"
       x1="366.93753"
       y1="387.19626"
       x2="366.93753"
       y2="366.15985" />
    <linearGradient
       inkscape:collect="always"
       xlink:href="#linearGradient3667"
       id="linearGradient3873"
       gradientUnits="userSpaceOnUse"
       gradientTransform="translate(188,114)"
       x1="353.25116"
       y1="407.56142"
       x2="382.37387"
       y2="407.56142" />
    <radialGradient
       inkscape:collect="always"
       xlink:href="#linearGradient3625"
       id="radialGradient3875"
       gradientUnits="userSpaceOnUse"
       gradientTransform="matrix(1,0,0,1.2707762,188,18.764866)"
       cx="367.45155"
       cy="351.71161"
       fx="367.45155"
       fy="351.71161"
       r="35.504171" />
    <linearGradient
       inkscape:collect="always"
       xlink:href="#linearGradient3617"
       id="linearGradient3877"
       gradientUnits="userSpaceOnUse"
       gradientTransform="translate(188,114)"
       x1="339.88666"
       y1="314.23495"
       x2="388.12213"
       y2="389.36505" />
    <linearGradient
       inkscape:collect="always"
       xlink:href="#linearGradient3633"
       id="linearGradient3879"
       gradientUnits="userSpaceOnUse"
       gradientTransform="translate(188,114)"
       x1="366.93753"
       y1="387.19626"
       x2="366.93753"
       y2="366.15985" />
    <linearGradient
       inkscape:collect="always"
       xlink:href="#linearGradient3667"
       id="linearGradient4340"
       gradientUnits="userSpaceOnUse"
       x1="353.25116"
       y1="407.56142"
       x2="382.37387"
       y2="407.56142"
       gradientTransform="translate(-159.09903,223.44574)" />
    <radialGradient
       inkscape:collect="always"
       xlink:href="#linearGradient3625"
       id="radialGradient4342"
       gradientUnits="userSpaceOnUse"
       gradientTransform="matrix(1,0,0,1.2707762,-159.09903,128.21061)"
       cx="367.45155"
       cy="351.71161"
       fx="367.45155"
       fy="351.71161"
       r="35.504171" />
    <linearGradient
       inkscape:collect="always"
       xlink:href="#linearGradient3633"
       id="linearGradient4344"
       gradientUnits="userSpaceOnUse"
       x1="366.93753"
       y1="377.94626"
       x2="366.93753"
       y2="366.15985"
       gradientTransform="translate(-159.09903,223.44574)" />
    <linearGradient
       inkscape:collect="always"
       xlink:href="#linearGradient3617"
       id="linearGradient4346"
       gradientUnits="userSpaceOnUse"
       x1="339.88666"
       y1="314.23495"
       x2="388.12213"
       y2="389.36505"
       gradientTransform="translate(-159.09903,223.44574)" />
    <linearGradient
       inkscape:collect="always"
       xlink:href="#linearGradient3667"
       id="linearGradient4355"
       gradientUnits="userSpaceOnUse"
       gradientTransform="translate(-159.09903,223.44574)"
       x1="353.25116"
       y1="407.56142"
       x2="382.37387"
       y2="407.56142" />
    <radialGradient
       inkscape:collect="always"
       xlink:href="#linearGradient3625"
       id="radialGradient4357"
       gradientUnits="userSpaceOnUse"
       gradientTransform="matrix(1,0,0,1.2707762,-159.09903,128.21061)"
       cx="367.45155"
       cy="351.71161"
       fx="367.45155"
       fy="351.71161"
       r="35.504171" />
    <linearGradient
       inkscape:collect="always"
       xlink:href="#linearGradient3633"
       id="linearGradient4359"
       gradientUnits="userSpaceOnUse"
       gradientTransform="translate(-159.09903,223.44574)"
       x1="366.93753"
       y1="377.94626"
       x2="366.93753"
       y2="366.15985" />
    <linearGradient
       inkscape:collect="always"
       xlink:href="#linearGradient3617"
       id="linearGradient4361"
       gradientUnits="userSpaceOnUse"
       gradientTransform="translate(-159.09903,223.44574)"
       x1="339.88666"
       y1="314.23495"
       x2="388.12213"
       y2="389.36505" />
    <linearGradient
       inkscape:collect="always"
       xlink:href="#linearGradient3667"
       id="linearGradient4375"
       gradientUnits="userSpaceOnUse"
       gradientTransform="translate(-159.09903,223.44574)"
       x1="353.25116"
       y1="407.56142"
       x2="382.37387"
       y2="407.56142" />
    <radialGradient
       inkscape:collect="always"
       xlink:href="#linearGradient3625"
       id="radialGradient4377"
       gradientUnits="userSpaceOnUse"
       gradientTransform="matrix(1,0,0,1.2707762,-159.09903,128.21061)"
       cx="367.45155"
       cy="351.71161"
       fx="367.45155"
       fy="351.71161"
       r="35.504171" />
    <linearGradient
       inkscape:collect="always"
       xlink:href="#linearGradient3633"
       id="linearGradient4379"
       gradientUnits="userSpaceOnUse"
       gradientTransform="translate(-159.09903,223.44574)"
       x1="366.93753"
       y1="377.94626"
       x2="366.93753"
       y2="366.15985" />
    <linearGradient
       inkscape:collect="always"
       xlink:href="#linearGradient3617"
       id="linearGradient4381"
       gradientUnits="userSpaceOnUse"
       gradientTransform="translate(-159.09903,223.44574)"
       x1="339.88666"
       y1="314.23495"
       x2="388.12213"
       y2="389.36505" />
    <linearGradient
       inkscape:collect="always"
       xlink:href="#linearGradient3667"
       id="linearGradient4395"
       gradientUnits="userSpaceOnUse"
       gradientTransform="translate(-159.09903,223.44574)"
       x1="353.25116"
       y1="407.56142"
       x2="382.37387"
       y2="407.56142" />
    <radialGradient
       inkscape:collect="always"
       xlink:href="#linearGradient3625"
       id="radialGradient4397"
       gradientUnits="userSpaceOnUse"
       gradientTransform="matrix(1,0,0,1.2707762,-159.09903,128.21061)"
       cx="367.45155"
       cy="351.71161"
       fx="367.45155"
       fy="351.71161"
       r="35.504171" />
    <linearGradient
       inkscape:collect="always"
       xlink:href="#linearGradient3633"
       id="linearGradient4399"
       gradientUnits="userSpaceOnUse"
       gradientTransform="translate(-159.09903,223.44574)"
       x1="366.93753"
       y1="377.94626"
       x2="366.93753"
       y2="366.15985" />
    <linearGradient
       inkscape:collect="always"
       xlink:href="#linearGradient3617"
       id="linearGradient4401"
       gradientUnits="userSpaceOnUse"
       gradientTransform="translate(-159.09903,223.44574)"
       x1="339.88666"
       y1="314.23495"
       x2="388.12213"
       y2="389.36505" />
    <linearGradient
       inkscape:collect="always"
       xlink:href="#linearGradient3667"
       id="linearGradient4415"
       gradientUnits="userSpaceOnUse"
       gradientTransform="translate(-159.09903,223.44574)"
       x1="353.25116"
       y1="407.56142"
       x2="382.37387"
       y2="407.56142" />
    <radialGradient
       inkscape:collect="always"
       xlink:href="#linearGradient3625"
       id="radialGradient4417"
       gradientUnits="userSpaceOnUse"
       gradientTransform="matrix(1,0,0,1.2707762,-159.09903,128.21061)"
       cx="367.45155"
       cy="351.71161"
       fx="367.45155"
       fy="351.71161"
       r="35.504171" />
    <linearGradient
       inkscape:collect="always"
       xlink:href="#linearGradient3633"
       id="linearGradient4419"
       gradientUnits="userSpaceOnUse"
       gradientTransform="translate(-159.09903,223.44574)"
       x1="366.93753"
       y1="377.94626"
       x2="366.93753"
       y2="366.15985" />
    <linearGradient
       inkscape:collect="always"
       xlink:href="#linearGradient3617"
       id="linearGradient4421"
       gradientUnits="userSpaceOnUse"
       gradientTransform="translate(-159.09903,223.44574)"
       x1="339.88666"
       y1="314.23495"
       x2="388.12213"
       y2="389.36505" />
    <linearGradient
       inkscape:collect="always"
       xlink:href="#linearGradient3667"
       id="linearGradient4435"
       gradientUnits="userSpaceOnUse"
       gradientTransform="translate(-159.09903,223.44574)"
       x1="353.25116"
       y1="407.56142"
       x2="382.37387"
       y2="407.56142" />
    <radialGradient
       inkscape:collect="always"
       xlink:href="#linearGradient3625"
       id="radialGradient4437"
       gradientUnits="userSpaceOnUse"
       gradientTransform="matrix(1,0,0,1.2707762,-159.09903,128.21061)"
       cx="367.45155"
       cy="351.71161"
       fx="367.45155"
       fy="351.71161"
       r="35.504171" />
    <linearGradient
       inkscape:collect="always"
       xlink:href="#linearGradient3633"
       id="linearGradient4439"
       gradientUnits="userSpaceOnUse"
       gradientTransform="translate(-159.09903,223.44574)"
       x1="366.93753"
       y1="377.94626"
       x2="366.93753"
       y2="366.15985" />
    <linearGradient
       inkscape:collect="always"
       xlink:href="#linearGradient3617"
       id="linearGradient4441"
       gradientUnits="userSpaceOnUse"
       gradientTransform="translate(-159.09903,223.44574)"
       x1="339.88666"
       y1="314.23495"
       x2="388.12213"
       y2="389.36505" />
  </defs>
  <sodipodi:namedview
     id="base"
     pagecolor="#ffffff"
     bordercolor="#666666"
     borderopacity="1.0"
     inkscape:pageopacity="0.0"
     inkscape:pageshadow="2"
     inkscape:zoom="1.4142136"
     inkscape:cx="582.33856"
     inkscape:cy="576.63237"
     inkscape:document-units="px"
     inkscape:current-layer="layer1"
     showgrid="false"
     inkscape:object-nodes="false"
     showguides="true"
     inkscape:guide-bbox="true"
     inkscape:window-width="1602"
     inkscape:window-height="1028"
     inkscape:window-x="1672"
     inkscape:window-y="-8"
     inkscape:window-maximized="1" />
  <metadata
     id="metadata7">
    <rdf:RDF>
      <cc:Work
         rdf:about="">
        <dc:format>image/svg+xml</dc:format>
        <dc:type
           rdf:resource="http://purl.org/dc/dcmitype/StillImage" />
        <dc:title></dc:title>
      </cc:Work>
    </rdf:RDF>
  </metadata>
  <g
     inkscape:label="Layer 1"
     inkscape:groupmode="layer"
     id="layer1">
    <path
       style="fill:url(#linearGradient3673);fill-opacity:1;stroke:#d59600;stroke-width:3;stroke-linejoin:round;stroke-miterlimit:4;stroke-opacity:1;stroke-dasharray:none;stroke-linecap:butt"
       d="m 380.87387,394.80084 0,17.62271 c -8.70757,10.5625 -17.60264,10.5 -26.12271,0 l 0,-17.62271"
       id="rect3617"
       sodipodi:nodetypes="cccc" />
    <path
       style="fill:url(#radialGradient3631);stroke:none;stroke-width:3;fill-opacity:1;stroke-opacity:1;stroke-miterlimit:4;stroke-dasharray:none"
       d="m 367.4375,308.09375 c -8.70427,0 -17.39012,3.32762 -24.03125,9.96875 -11.88333,11.88333 -13.13011,30.35019 -3.75,43.625 4.38119,6.49179 7.88222,13.17074 9.25,20.90625 0.81211,4.82574 0.39351,11.82022 6.75,12.59375 8.93209,0.16097 16.18736,0.25892 25.03125,-0.125 5.26669,-1.61249 3.82571,-9.21288 4.9375,-12.9375 1.93837,-7.34308 5.81842,-14.96171 9.59375,-20.4375 5.97007,-8.44604 7.6703,-19.00075 5.03125,-28.625 -1.5089,-5.50273 -4.42674,-10.67674 -8.75,-15 -6.64113,-6.64113 -15.35823,-9.96875 -24.0625,-9.96875 z"
       id="path2830"
       sodipodi:nodetypes="csccccccssc" />
    <path
       sodipodi:nodetypes="csccccccc"
       d="m 376.05037,364.91685 c 4.57784,-1.08148 7.15821,0.10723 9.16637,-2.56337 2.10288,-2.79655 0.40298,-6.03002 0.21933,-10.63803 -0.41191,-7.21553 -3.92361,-12.80449 -9.26725,-17.41019 -3.32949,-2.30119 -7.78161,-3.56051 -12.17342,-3.59171 l 1.6e-4,-1.4e-4 c -2.22265,-0.0601 -4.39322,0.36119 -6.52547,0.9322 -8.55066,0.33464 -10.45165,2.52909 -9.70583,10.80262 -0.89315,7.04062 3.41123,15.30753 9.38777,19.46805"
       style="fill:none;stroke:#8ae234;stroke-width:10;stroke-linecap:round;stroke-linejoin:round;stroke-miterlimit:4;stroke-opacity:1;stroke-dasharray:none;fill-opacity:1;filter:url(#filter3762)"
       id="path3760" />
    <path
       id="path3655"
       style="fill:none;stroke:url(#linearGradient3778);stroke-width:3.50000000000000000;stroke-linecap:butt;stroke-linejoin:round;stroke-miterlimit:4;stroke-opacity:1;stroke-dasharray:none;fill-opacity:1"
       d="m 370.76659,394.71771 c 0,-9.64935 -1.00353,-22.61899 5.28378,-29.80086 4.57784,-1.08148 7.15821,0.10723 9.16637,-2.56337 2.10288,-2.79655 0.40298,-6.03002 0.21933,-10.63803 -0.41191,-7.21553 -3.92361,-12.80449 -9.26725,-17.41019 -3.32949,-2.30119 -7.78161,-3.56051 -12.17342,-3.59171 l 1.6e-4,-1.4e-4 c -2.22265,-0.0601 -4.39322,0.36119 -6.52547,0.9322 -8.55066,0.33464 -10.45165,2.52909 -9.70583,10.80262 -0.89315,7.04062 3.41123,15.30753 9.38777,19.46805 5.96038,7.14246 5.36755,23.11573 5.36755,32.76508"
       sodipodi:nodetypes="ccscccccccc" />
    <text
       xml:space="preserve"
       style="font-size:64px;font-style:normal;font-variant:normal;font-weight:bold;font-stretch:normal;text-align:start;line-height:125%;writing-mode:lr-tb;text-anchor:start;fill:#000000;fill-opacity:1;stroke:none;font-family:Calibri;-inkscape-font-specification:Calibri Bold"
       x="237.26682"
       y="288.20425"
       id="text2817"
       sodipodi:linespacing="125%"
       inkscape:export-filename="C:\Users\David\Documents\Flex Builder 3\Lighthouse Ticket Exporter\src\img\limelight-text.png"
       inkscape:export-xdpi="90"
       inkscape:export-ydpi="90"><tspan
         sodipodi:role="line"
         id="tspan2819"
         x="237.26682"
         y="288.20425"
         style="letter-spacing:-3.55555034">Limelight</tspan></text>
    <text
       xml:space="preserve"
       style="font-size:13.30403996px;font-style:normal;font-variant:normal;font-weight:bold;font-stretch:normal;text-align:start;line-height:125%;writing-mode:lr-tb;text-anchor:start;fill:#000000;fill-opacity:1;stroke:none;font-family:Calibri;-inkscape-font-specification:Calibri Bold"
       x="405.54462"
       y="299.36218"
       id="text2821"
       sodipodi:linespacing="125%"
       inkscape:export-filename="C:\Users\David\Documents\Flex Builder 3\Lighthouse Ticket Exporter\src\img\limelight-text.png"
       inkscape:export-xdpi="90"
       inkscape:export-ydpi="90"><tspan
         sodipodi:role="line"
         id="tspan2823"
         x="405.54462"
         y="299.36218">v 0.3</tspan></text>
    <path
       sodipodi:nodetypes="csccccccssc"
       id="path3881"
       d="m 367.4375,308.09375 c -8.70427,0 -17.39012,3.32762 -24.03125,9.96875 -11.88333,11.88333 -13.13011,30.35019 -3.75,43.625 4.38119,6.49179 7.88222,13.17074 9.25,20.90625 0.81211,4.82574 0.39351,11.82022 6.75,12.59375 8.93209,0.16097 16.18736,0.25892 25.03125,-0.125 5.26669,-1.61249 3.82571,-9.21288 4.9375,-12.9375 1.93837,-7.34308 5.81842,-14.96171 9.59375,-20.4375 5.97007,-8.44604 7.6703,-19.00075 5.03125,-28.625 -1.5089,-5.50273 -4.42674,-10.67674 -8.75,-15 -6.64113,-6.64113 -15.35823,-9.96875 -24.0625,-9.96875 z"
       style="fill:none;stroke:url(#linearGradient3623);stroke-width:3;fill-opacity:1;stroke-opacity:1;stroke-miterlimit:4;stroke-dasharray:none" />
    <g
       id="g4348"
       transform="matrix(0.13885483,0,0,0.13885483,139.65513,442.96209)">
      <path
         style="fill:url(#linearGradient4355);fill-opacity:1;stroke:#d59600;stroke-width:3;stroke-linecap:butt;stroke-linejoin:round;stroke-miterlimit:4;stroke-opacity:1;stroke-dasharray:none"
         d="m 221.77484,618.24658 0,17.62271 c -8.70757,10.5625 -17.60264,10.5 -26.12271,0 l 0,-17.62271"
         id="path4326"
         sodipodi:nodetypes="cccc" />
      <path
         style="fill:url(#radialGradient4357);fill-opacity:1;stroke:none"
         d="m 208.33847,531.53949 c -8.70427,0 -17.39012,3.32762 -24.03125,9.96875 -11.88333,11.88333 -13.13011,30.35019 -3.75,43.625 4.38119,6.49179 7.88222,13.17074 9.25,20.90625 0.81211,4.82574 0.39351,11.82022 6.75,12.59375 8.93209,0.16097 16.18736,0.25892 25.03125,-0.125 5.26669,-1.61249 3.82571,-9.21288 4.9375,-12.9375 1.93837,-7.34308 5.81842,-14.96171 9.59375,-20.4375 5.97007,-8.44604 7.6703,-19.00075 5.03125,-28.625 -1.5089,-5.50273 -4.42674,-10.67674 -8.75,-15 -6.64113,-6.64113 -15.35823,-9.96875 -24.0625,-9.96875 z"
         id="path4328"
         sodipodi:nodetypes="csccccccssc" />
      <path
         sodipodi:nodetypes="csccccccc"
         d="m 216.95134,588.36259 c 4.57784,-1.08148 7.15821,0.10723 9.16637,-2.56337 2.10288,-2.79655 0.40298,-6.03002 0.21933,-10.63803 -0.41191,-7.21553 -3.92361,-12.80449 -9.26725,-17.41019 -3.32949,-2.30119 -7.78161,-3.56051 -12.17342,-3.59171 l 1.6e-4,-1.4e-4 c -2.22265,-0.0601 -4.39322,0.36119 -6.52547,0.9322 -8.55066,0.33464 -10.45165,2.52909 -9.70583,10.80262 -0.89315,7.04062 3.41123,15.30753 9.38777,19.46805"
         style="fill:none;stroke:#8ae234;stroke-width:10;stroke-linecap:round;stroke-linejoin:round;stroke-miterlimit:4;stroke-opacity:1;stroke-dasharray:none;filter:url(#filter3762)"
         id="path4330" />
      <path
         id="path4332"
         style="fill:none;stroke:url(#linearGradient4359);stroke-width:3.5;stroke-linecap:butt;stroke-linejoin:round;stroke-miterlimit:4;stroke-opacity:1;stroke-dasharray:none"
         d="m 211.66756,618.16345 c 0,-9.64935 -1.00353,-22.61899 5.28378,-29.80086 4.57784,-1.08148 7.15821,0.10723 9.16637,-2.56337 2.10288,-2.79655 0.40298,-6.03002 0.21933,-10.63803 -0.41191,-7.21553 -3.92361,-12.80449 -9.26725,-17.41019 -3.32949,-2.30119 -7.78161,-3.56051 -12.17342,-3.59171 l 1.6e-4,-1.4e-4 c -2.22265,-0.0601 -4.39322,0.36119 -6.52547,0.9322 -8.55066,0.33464 -10.45165,2.52909 -9.70583,10.80262 -0.89315,7.04062 3.41123,15.30753 9.38777,19.46805 5.96038,7.14246 5.36755,23.11573 5.36755,32.76508"
         sodipodi:nodetypes="ccscccccccc" />
      <path
         sodipodi:nodetypes="csccccccssc"
         id="path4338"
         d="m 208.33847,531.53949 c -8.70427,0 -17.39012,3.32762 -24.03125,9.96875 -11.88333,11.88333 -13.13011,30.35019 -3.75,43.625 4.38119,6.49179 7.88222,13.17074 9.25,20.90625 0.81211,4.82574 0.39351,11.82022 6.75,12.59375 8.93209,0.16097 16.18736,0.25892 25.03125,-0.125 5.26669,-1.61249 3.82571,-9.21288 4.9375,-12.9375 1.93837,-7.34308 5.81842,-14.96171 9.59375,-20.4375 5.97007,-8.44604 7.6703,-19.00075 5.03125,-28.625 -1.5089,-5.50273 -4.42674,-10.67674 -8.75,-15 -6.64113,-6.64113 -15.35823,-9.96875 -24.0625,-9.96875 z"
         style="fill:none;stroke:url(#linearGradient4361);stroke-width:3;stroke-miterlimit:4;stroke-opacity:1;stroke-dasharray:none" />
    </g>
    <g
       transform="matrix(0.27770966,0,0,0.27770966,164.26182,369.36355)"
       id="g4363">
      <path
         sodipodi:nodetypes="cccc"
         id="path4365"
         d="m 221.77484,618.24658 0,17.62271 c -8.70757,10.5625 -17.60264,10.5 -26.12271,0 l 0,-17.62271"
         style="fill:url(#linearGradient4375);fill-opacity:1;stroke:#d59600;stroke-width:3;stroke-linecap:butt;stroke-linejoin:round;stroke-miterlimit:4;stroke-opacity:1;stroke-dasharray:none" />
      <path
         sodipodi:nodetypes="csccccccssc"
         id="path4367"
         d="m 208.33847,531.53949 c -8.70427,0 -17.39012,3.32762 -24.03125,9.96875 -11.88333,11.88333 -13.13011,30.35019 -3.75,43.625 4.38119,6.49179 7.88222,13.17074 9.25,20.90625 0.81211,4.82574 0.39351,11.82022 6.75,12.59375 8.93209,0.16097 16.18736,0.25892 25.03125,-0.125 5.26669,-1.61249 3.82571,-9.21288 4.9375,-12.9375 1.93837,-7.34308 5.81842,-14.96171 9.59375,-20.4375 5.97007,-8.44604 7.6703,-19.00075 5.03125,-28.625 -1.5089,-5.50273 -4.42674,-10.67674 -8.75,-15 -6.64113,-6.64113 -15.35823,-9.96875 -24.0625,-9.96875 z"
         style="fill:url(#radialGradient4377);fill-opacity:1;stroke:none" />
      <path
         id="path4369"
         style="fill:none;stroke:#8ae234;stroke-width:10;stroke-linecap:round;stroke-linejoin:round;stroke-miterlimit:4;stroke-opacity:1;stroke-dasharray:none;filter:url(#filter3762)"
         d="m 216.95134,588.36259 c 4.57784,-1.08148 7.15821,0.10723 9.16637,-2.56337 2.10288,-2.79655 0.40298,-6.03002 0.21933,-10.63803 -0.41191,-7.21553 -3.92361,-12.80449 -9.26725,-17.41019 -3.32949,-2.30119 -7.78161,-3.56051 -12.17342,-3.59171 l 1.6e-4,-1.4e-4 c -2.22265,-0.0601 -4.39322,0.36119 -6.52547,0.9322 -8.55066,0.33464 -10.45165,2.52909 -9.70583,10.80262 -0.89315,7.04062 3.41123,15.30753 9.38777,19.46805"
         sodipodi:nodetypes="csccccccc" />
      <path
         sodipodi:nodetypes="ccscccccccc"
         d="m 211.66756,618.16345 c 0,-9.64935 -1.00353,-22.61899 5.28378,-29.80086 4.57784,-1.08148 7.15821,0.10723 9.16637,-2.56337 2.10288,-2.79655 0.40298,-6.03002 0.21933,-10.63803 -0.41191,-7.21553 -3.92361,-12.80449 -9.26725,-17.41019 -3.32949,-2.30119 -7.78161,-3.56051 -12.17342,-3.59171 l 1.6e-4,-1.4e-4 c -2.22265,-0.0601 -4.39322,0.36119 -6.52547,0.9322 -8.55066,0.33464 -10.45165,2.52909 -9.70583,10.80262 -0.89315,7.04062 3.41123,15.30753 9.38777,19.46805 5.96038,7.14246 5.36755,23.11573 5.36755,32.76508"
         style="fill:none;stroke:url(#linearGradient4379);stroke-width:3.5;stroke-linecap:butt;stroke-linejoin:round;stroke-miterlimit:4;stroke-opacity:1;stroke-dasharray:none"
         id="path4371" />
      <path
         style="fill:none;stroke:url(#linearGradient4381);stroke-width:3;stroke-miterlimit:4;stroke-opacity:1;stroke-dasharray:none"
         d="m 208.33847,531.53949 c -8.70427,0 -17.39012,3.32762 -24.03125,9.96875 -11.88333,11.88333 -13.13011,30.35019 -3.75,43.625 4.38119,6.49179 7.88222,13.17074 9.25,20.90625 0.81211,4.82574 0.39351,11.82022 6.75,12.59375 8.93209,0.16097 16.18736,0.25892 25.03125,-0.125 5.26669,-1.61249 3.82571,-9.21288 4.9375,-12.9375 1.93837,-7.34308 5.81842,-14.96171 9.59375,-20.4375 5.97007,-8.44604 7.6703,-19.00075 5.03125,-28.625 -1.5089,-5.50273 -4.42674,-10.67674 -8.75,-15 -6.64113,-6.64113 -15.35823,-9.96875 -24.0625,-9.96875 z"
         id="path4373"
         sodipodi:nodetypes="csccccccssc" />
    </g>
    <g
       id="g4383"
       transform="matrix(0.55541933,0,0,0.55541933,174.72754,222.16646)">
      <path
         style="fill:url(#linearGradient4395);fill-opacity:1;stroke:#d59600;stroke-width:3;stroke-linecap:butt;stroke-linejoin:round;stroke-miterlimit:4;stroke-opacity:1;stroke-dasharray:none"
         d="m 221.77484,618.24658 0,17.62271 c -8.70757,10.5625 -17.60264,10.5 -26.12271,0 l 0,-17.62271"
         id="path4385"
         sodipodi:nodetypes="cccc" />
      <path
         style="fill:url(#radialGradient4397);fill-opacity:1;stroke:none"
         d="m 208.33847,531.53949 c -8.70427,0 -17.39012,3.32762 -24.03125,9.96875 -11.88333,11.88333 -13.13011,30.35019 -3.75,43.625 4.38119,6.49179 7.88222,13.17074 9.25,20.90625 0.81211,4.82574 0.39351,11.82022 6.75,12.59375 8.93209,0.16097 16.18736,0.25892 25.03125,-0.125 5.26669,-1.61249 3.82571,-9.21288 4.9375,-12.9375 1.93837,-7.34308 5.81842,-14.96171 9.59375,-20.4375 5.97007,-8.44604 7.6703,-19.00075 5.03125,-28.625 -1.5089,-5.50273 -4.42674,-10.67674 -8.75,-15 -6.64113,-6.64113 -15.35823,-9.96875 -24.0625,-9.96875 z"
         id="path4387"
         sodipodi:nodetypes="csccccccssc" />
      <path
         sodipodi:nodetypes="csccccccc"
         d="m 216.95134,588.36259 c 4.57784,-1.08148 7.15821,0.10723 9.16637,-2.56337 2.10288,-2.79655 0.40298,-6.03002 0.21933,-10.63803 -0.41191,-7.21553 -3.92361,-12.80449 -9.26725,-17.41019 -3.32949,-2.30119 -7.78161,-3.56051 -12.17342,-3.59171 l 1.6e-4,-1.4e-4 c -2.22265,-0.0601 -4.39322,0.36119 -6.52547,0.9322 -8.55066,0.33464 -10.45165,2.52909 -9.70583,10.80262 -0.89315,7.04062 3.41123,15.30753 9.38777,19.46805"
         style="fill:none;stroke:#8ae234;stroke-width:10;stroke-linecap:round;stroke-linejoin:round;stroke-miterlimit:4;stroke-opacity:1;stroke-dasharray:none;filter:url(#filter3762)"
         id="path4389" />
      <path
         id="path4391"
         style="fill:none;stroke:url(#linearGradient4399);stroke-width:3.5;stroke-linecap:butt;stroke-linejoin:round;stroke-miterlimit:4;stroke-opacity:1;stroke-dasharray:none"
         d="m 211.66756,618.16345 c 0,-9.64935 -1.00353,-22.61899 5.28378,-29.80086 4.57784,-1.08148 7.15821,0.10723 9.16637,-2.56337 2.10288,-2.79655 0.40298,-6.03002 0.21933,-10.63803 -0.41191,-7.21553 -3.92361,-12.80449 -9.26725,-17.41019 -3.32949,-2.30119 -7.78161,-3.56051 -12.17342,-3.59171 l 1.6e-4,-1.4e-4 c -2.22265,-0.0601 -4.39322,0.36119 -6.52547,0.9322 -8.55066,0.33464 -10.45165,2.52909 -9.70583,10.80262 -0.89315,7.04062 3.41123,15.30753 9.38777,19.46805 5.96038,7.14246 5.36755,23.11573 5.36755,32.76508"
         sodipodi:nodetypes="ccscccccccc" />
      <path
         sodipodi:nodetypes="csccccccssc"
         id="path4393"
         d="m 208.33847,531.53949 c -8.70427,0 -17.39012,3.32762 -24.03125,9.96875 -11.88333,11.88333 -13.13011,30.35019 -3.75,43.625 4.38119,6.49179 7.88222,13.17074 9.25,20.90625 0.81211,4.82574 0.39351,11.82022 6.75,12.59375 8.93209,0.16097 16.18736,0.25892 25.03125,-0.125 5.26669,-1.61249 3.82571,-9.21288 4.9375,-12.9375 1.93837,-7.34308 5.81842,-14.96171 9.59375,-20.4375 5.97007,-8.44604 7.6703,-19.00075 5.03125,-28.625 -1.5089,-5.50273 -4.42674,-10.67674 -8.75,-15 -6.64113,-6.64113 -15.35823,-9.96875 -24.0625,-9.96875 z"
         style="fill:none;stroke:url(#linearGradient4401);stroke-width:3;stroke-miterlimit:4;stroke-opacity:1;stroke-dasharray:none" />
    </g>
    <g
       transform="matrix(1.1108387,0,0,1.1108387,156.9113,-72.22774)"
       id="g4403">
      <path
         sodipodi:nodetypes="cccc"
         id="path4405"
         d="m 221.77484,618.24658 0,17.62271 c -8.70757,10.5625 -17.60264,10.5 -26.12271,0 l 0,-17.62271"
         style="fill:url(#linearGradient4415);fill-opacity:1;stroke:#d59600;stroke-width:3;stroke-linecap:butt;stroke-linejoin:round;stroke-miterlimit:4;stroke-opacity:1;stroke-dasharray:none" />
      <path
         sodipodi:nodetypes="csccccccssc"
         id="path4407"
         d="m 208.33847,531.53949 c -8.70427,0 -17.39012,3.32762 -24.03125,9.96875 -11.88333,11.88333 -13.13011,30.35019 -3.75,43.625 4.38119,6.49179 7.88222,13.17074 9.25,20.90625 0.81211,4.82574 0.39351,11.82022 6.75,12.59375 8.93209,0.16097 16.18736,0.25892 25.03125,-0.125 5.26669,-1.61249 3.82571,-9.21288 4.9375,-12.9375 1.93837,-7.34308 5.81842,-14.96171 9.59375,-20.4375 5.97007,-8.44604 7.6703,-19.00075 5.03125,-28.625 -1.5089,-5.50273 -4.42674,-10.67674 -8.75,-15 -6.64113,-6.64113 -15.35823,-9.96875 -24.0625,-9.96875 z"
         style="fill:url(#radialGradient4417);fill-opacity:1;stroke:none" />
      <path
         id="path4409"
         style="fill:none;stroke:#8ae234;stroke-width:10;stroke-linecap:round;stroke-linejoin:round;stroke-miterlimit:4;stroke-opacity:1;stroke-dasharray:none;filter:url(#filter3762)"
         d="m 216.95134,588.36259 c 4.57784,-1.08148 7.15821,0.10723 9.16637,-2.56337 2.10288,-2.79655 0.40298,-6.03002 0.21933,-10.63803 -0.41191,-7.21553 -3.92361,-12.80449 -9.26725,-17.41019 -3.32949,-2.30119 -7.78161,-3.56051 -12.17342,-3.59171 l 1.6e-4,-1.4e-4 c -2.22265,-0.0601 -4.39322,0.36119 -6.52547,0.9322 -8.55066,0.33464 -10.45165,2.52909 -9.70583,10.80262 -0.89315,7.04062 3.41123,15.30753 9.38777,19.46805"
         sodipodi:nodetypes="csccccccc" />
      <path
         sodipodi:nodetypes="ccscccccccc"
         d="m 211.66756,618.16345 c 0,-9.64935 -1.00353,-22.61899 5.28378,-29.80086 4.57784,-1.08148 7.15821,0.10723 9.16637,-2.56337 2.10288,-2.79655 0.40298,-6.03002 0.21933,-10.63803 -0.41191,-7.21553 -3.92361,-12.80449 -9.26725,-17.41019 -3.32949,-2.30119 -7.78161,-3.56051 -12.17342,-3.59171 l 1.6e-4,-1.4e-4 c -2.22265,-0.0601 -4.39322,0.36119 -6.52547,0.9322 -8.55066,0.33464 -10.45165,2.52909 -9.70583,10.80262 -0.89315,7.04062 3.41123,15.30753 9.38777,19.46805 5.96038,7.14246 5.36755,23.11573 5.36755,32.76508"
         style="fill:none;stroke:url(#linearGradient4419);stroke-width:3.5;stroke-linecap:butt;stroke-linejoin:round;stroke-miterlimit:4;stroke-opacity:1;stroke-dasharray:none"
         id="path4411" />
      <path
         style="fill:none;stroke:url(#linearGradient4421);stroke-width:3;stroke-miterlimit:4;stroke-opacity:1;stroke-dasharray:none"
         d="m 208.33847,531.53949 c -8.70427,0 -17.39012,3.32762 -24.03125,9.96875 -11.88333,11.88333 -13.13011,30.35019 -3.75,43.625 4.38119,6.49179 7.88222,13.17074 9.25,20.90625 0.81211,4.82574 0.39351,11.82022 6.75,12.59375 8.93209,0.16097 16.18736,0.25892 25.03125,-0.125 5.26669,-1.61249 3.82571,-9.21288 4.9375,-12.9375 1.93837,-7.34308 5.81842,-14.96171 9.59375,-20.4375 5.97007,-8.44604 7.6703,-19.00075 5.03125,-28.625 -1.5089,-5.50273 -4.42674,-10.67674 -8.75,-15 -6.64113,-6.64113 -15.35823,-9.96875 -24.0625,-9.96875 z"
         id="path4413"
         sodipodi:nodetypes="csccccccssc" />
    </g>
    <g
       id="g3696"
       transform="translate(-41.5,-4.75)">
      <path
         sodipodi:nodetypes="ccsccccccc"
         d="m 480.54216,361.56273 c 5.97654,4.16052 14.3205,4.08205 18.89834,3.00057 4.57784,-1.08148 7.15821,0.10723 9.16637,-2.56337 2.10288,-2.79655 0.40298,-6.03002 0.21933,-10.63803 -0.41191,-7.21553 -3.92361,-12.80449 -9.26725,-17.41019 -3.32949,-2.30119 -7.78161,-3.56051 -12.17342,-3.59171 l 1.6e-4,-1.4e-4 c -2.22265,-0.0601 -4.39322,0.36119 -6.52547,0.9322 -8.55066,0.33464 -10.45165,2.52909 -9.70583,10.80262 -0.89315,7.04062 3.41123,15.30753 9.38777,19.46805 z"
         style="fill:none;stroke:#8ae234;stroke-width:10;stroke-linecap:round;stroke-linejoin:round;stroke-miterlimit:4;stroke-opacity:1;stroke-dasharray:none;filter:url(#filter3762)"
         id="path2918" />
      <path
         id="path2922"
         style="fill:none;stroke:#ffffff;stroke-width:3;stroke-linecap:round;stroke-linejoin:round;stroke-miterlimit:4;stroke-opacity:1;stroke-dasharray:none"
         d="m 480.54216,361.56273 c 5.97654,4.16052 14.3205,4.08205 18.89834,3.00057 4.57784,-1.08148 7.15821,0.10723 9.16637,-2.56337 2.10288,-2.79655 0.40298,-6.03002 0.21933,-10.63803 -0.41191,-7.21553 -3.92361,-12.80449 -9.26725,-17.41019 -3.32949,-2.30119 -7.78161,-3.56051 -12.17342,-3.59171 l 1.6e-4,-1.4e-4 c -2.22265,-0.0601 -4.39322,0.36119 -6.52547,0.9322 -8.55066,0.33464 -10.45165,2.52909 -9.70583,10.80262 -0.89315,7.04062 3.41123,15.30753 9.38777,19.46805 z"
         sodipodi:nodetypes="ccsccccccc" />
    </g>
    <g
       id="g3798"
       transform="translate(-1.8262469,1.5258789e-5)">
      <g
         id="g3708">
        <g
           id="g3700"
           transform="matrix(0.30962142,0,0,0.30962142,386.82352,220.91542)">
          <path
             id="path3702"
             style="fill:none;stroke:#8ae234;stroke-width:10;stroke-linecap:round;stroke-linejoin:round;stroke-miterlimit:4;stroke-opacity:1;stroke-dasharray:none;filter:url(#filter3762)"
             d="m 480.54216,361.56273 c 5.97654,4.16052 14.3205,4.08205 18.89834,3.00057 4.57784,-1.08148 7.15821,0.10723 9.16637,-2.56337 2.10288,-2.79655 0.40298,-6.03002 0.21933,-10.63803 -0.41191,-7.21553 -3.92361,-12.80449 -9.26725,-17.41019 -3.32949,-2.30119 -7.78161,-3.56051 -12.17342,-3.59171 l 1.6e-4,-1.4e-4 c -2.22265,-0.0601 -4.39322,0.36119 -6.52547,0.9322 -8.55066,0.33464 -10.45165,2.52909 -9.70583,10.80262 -0.89315,7.04062 3.41123,15.30753 9.38777,19.46805 z"
             sodipodi:nodetypes="ccsccccccc" />
          <path
             sodipodi:nodetypes="ccsccccccc"
             d="m 480.54216,361.56273 c 5.97654,4.16052 14.3205,4.08205 18.89834,3.00057 4.57784,-1.08148 7.15821,0.10723 9.16637,-2.56337 2.10288,-2.79655 0.40298,-6.03002 0.21933,-10.63803 -0.41191,-7.21553 -3.92361,-12.80449 -9.26725,-17.41019 -3.32949,-2.30119 -7.78161,-3.56051 -12.17342,-3.59171 l 1.6e-4,-1.4e-4 c -2.22265,-0.0601 -4.39322,0.36119 -6.52547,0.9322 -8.55066,0.33464 -10.45165,2.52909 -9.70583,10.80262 -0.89315,7.04062 3.41123,15.30753 9.38777,19.46805 z"
             style="fill:none;stroke:#ffffff;stroke-width:3;stroke-linecap:round;stroke-linejoin:round;stroke-miterlimit:4;stroke-opacity:1;stroke-dasharray:none"
             id="path3704" />
        </g>
        <rect
           style="fill:none;stroke:none"
           id="rect3706"
           width="16"
           height="16"
           x="530.63947"
           y="320.59335" />
      </g>
    </g>
    <g
       id="g3792"
       transform="translate(-34.833562,44.580643)">
      <g
         id="g3746"
         transform="matrix(0.61950113,0,0,0.61950113,276.82204,106.91542)">
        <path
           id="path3748"
           style="fill:none;stroke:#8ae234;stroke-width:10;stroke-linecap:round;stroke-linejoin:round;stroke-miterlimit:4;stroke-opacity:1;stroke-dasharray:none;filter:url(#filter3762)"
           d="m 480.54216,361.56273 c 5.97654,4.16052 14.3205,4.08205 18.89834,3.00057 4.57784,-1.08148 7.15821,0.10723 9.16637,-2.56337 2.10288,-2.79655 0.40298,-6.03002 0.21933,-10.63803 -0.41191,-7.21553 -3.92361,-12.80449 -9.26725,-17.41019 -3.32949,-2.30119 -7.78161,-3.56051 -12.17342,-3.59171 l 1.6e-4,-1.4e-4 c -2.22265,-0.0601 -4.39322,0.36119 -6.52547,0.9322 -8.55066,0.33464 -10.45165,2.52909 -9.70583,10.80262 -0.89315,7.04062 3.41123,15.30753 9.38777,19.46805 z"
           sodipodi:nodetypes="ccsccccccc" />
        <path
           sodipodi:nodetypes="ccsccccccc"
           d="m 480.54216,361.56273 c 5.97654,4.16052 14.3205,4.08205 18.89834,3.00057 4.57784,-1.08148 7.15821,0.10723 9.16637,-2.56337 2.10288,-2.79655 0.40298,-6.03002 0.21933,-10.63803 -0.41191,-7.21553 -3.92361,-12.80449 -9.26725,-17.41019 -3.32949,-2.30119 -7.78161,-3.56051 -12.17342,-3.59171 l 1.6e-4,-1.4e-4 c -2.22265,-0.0601 -4.39322,0.36119 -6.52547,0.9322 -8.55066,0.33464 -10.45165,2.52909 -9.70583,10.80262 -0.89315,7.04062 3.41123,15.30753 9.38777,19.46805 z"
           style="fill:none;stroke:#ffffff;stroke-width:3;stroke-linecap:round;stroke-linejoin:round;stroke-miterlimit:4;stroke-opacity:1;stroke-dasharray:none"
           id="path3750" />
      </g>
      <rect
         style="fill:none;stroke:none"
         id="rect3752"
         width="32"
         height="32"
         x="564.58057"
         y="306.36111" />
    </g>
    <g
       id="g3786"
       transform="translate(-63.543323,198.50001)">
      <g
         id="g3764"
         transform="matrix(2.1928777,0,0,2.1928777,-406.14799,-430.76227)">
        <path
           sodipodi:nodetypes="ccsccccccc"
           d="m 480.54216,361.56273 c 5.97654,4.16052 14.3205,4.08205 18.89834,3.00057 4.57784,-1.08148 7.15821,0.10723 9.16637,-2.56337 2.10288,-2.79655 0.40298,-6.03002 0.21933,-10.63803 -0.41191,-7.21553 -3.92361,-12.80449 -9.26725,-17.41019 -3.32949,-2.30119 -7.78161,-3.56051 -12.17342,-3.59171 l 1.6e-4,-1.4e-4 c -2.22265,-0.0601 -4.39322,0.36119 -6.52547,0.9322 -8.55066,0.33464 -10.45165,2.52909 -9.70583,10.80262 -0.89315,7.04062 3.41123,15.30753 9.38777,19.46805 z"
           style="fill:none;stroke:#8ae234;stroke-width:10;stroke-linecap:round;stroke-linejoin:round;stroke-miterlimit:4;stroke-opacity:1;stroke-dasharray:none;filter:url(#filter3762)"
           id="path3766" />
        <path
           id="path3768"
           style="fill:none;stroke:#ffffff;stroke-width:3;stroke-linecap:round;stroke-linejoin:round;stroke-miterlimit:4;stroke-opacity:1;stroke-dasharray:none"
           d="m 480.54216,361.56273 c 5.97654,4.16052 14.3205,4.08205 18.89834,3.00057 4.57784,-1.08148 7.15821,0.10723 9.16637,-2.56337 2.10288,-2.79655 0.40298,-6.03002 0.21933,-10.63803 -0.41191,-7.21553 -3.92361,-12.80449 -9.26725,-17.41019 -3.32949,-2.30119 -7.78161,-3.56051 -12.17342,-3.59171 l 1.6e-4,-1.4e-4 c -2.22265,-0.0601 -4.39322,0.36119 -6.52547,0.9322 -8.55066,0.33464 -10.45165,2.52909 -9.70583,10.80262 -0.89315,7.04062 3.41123,15.30753 9.38777,19.46805 z"
           sodipodi:nodetypes="ccsccccccc" />
      </g>
      <rect
         y="267.86111"
         x="605.08057"
         height="128"
         width="128"
         id="rect3770"
         style="fill:none;stroke:none" />
    </g>
    <g
       id="g3780"
       transform="translate(-6,-100.07097)">
      <g
         transform="matrix(0.8677481,0,0,0.8677481,134.09968,219.58186)"
         id="g3772">
        <path
           id="path3774"
           style="fill:none;stroke:#8ae234;stroke-width:10;stroke-linecap:round;stroke-linejoin:round;stroke-miterlimit:4;stroke-opacity:1;stroke-dasharray:none;filter:url(#filter3762)"
           d="m 480.54216,361.56273 c 5.97654,4.16052 14.3205,4.08205 18.89834,3.00057 4.57784,-1.08148 7.15821,0.10723 9.16637,-2.56337 2.10288,-2.79655 0.40298,-6.03002 0.21933,-10.63803 -0.41191,-7.21553 -3.92361,-12.80449 -9.26725,-17.41019 -3.32949,-2.30119 -7.78161,-3.56051 -12.17342,-3.59171 l 1.6e-4,-1.4e-4 c -2.22265,-0.0601 -4.39322,0.36119 -6.52547,0.9322 -8.55066,0.33464 -10.45165,2.52909 -9.70583,10.80262 -0.89315,7.04062 3.41123,15.30753 9.38777,19.46805 z"
           sodipodi:nodetypes="ccsccccccc" />
        <path
           sodipodi:nodetypes="ccsccccccc"
           d="m 480.54216,361.56273 c 5.97654,4.16052 14.3205,4.08205 18.89834,3.00057 4.57784,-1.08148 7.15821,0.10723 9.16637,-2.56337 2.10288,-2.79655 0.40298,-6.03002 0.21933,-10.63803 -0.41191,-7.21553 -3.92361,-12.80449 -9.26725,-17.41019 -3.32949,-2.30119 -7.78161,-3.56051 -12.17342,-3.59171 l 1.6e-4,-1.4e-4 c -2.22265,-0.0601 -4.39322,0.36119 -6.52547,0.9322 -8.55066,0.33464 -10.45165,2.52909 -9.70583,10.80262 -0.89315,7.04062 3.41123,15.30753 9.38777,19.46805 z"
           style="fill:none;stroke:#ffffff;stroke-width:3;stroke-linecap:round;stroke-linejoin:round;stroke-miterlimit:4;stroke-opacity:1;stroke-dasharray:none"
           id="path3776" />
      </g>
      <rect
         style="fill:none;stroke:none"
         id="rect3778"
         width="48"
         height="48"
         x="535.58057"
         y="497.36111" />
    </g>
  </g>
</svg>
